<mxfile host="app.diagrams.net" modified="2023-12-06T06:43:21.637Z" agent="Mozilla/5.0 (Windows NT 10.0; Win64; x64) AppleWebKit/537.36 (KHTML, like Gecko) Chrome/118.0.0.0 Safari/537.36 OPR/104.0.0.0 (Edition Yx GX)" etag="Pk58RL6swmkcoNTNkZ1_" version="22.1.5" type="github">
  <diagram name="Страница — 1" id="05NZP83GpkCKuR3Go1oE">
    <mxGraphModel dx="2056" dy="2829" grid="1" gridSize="10" guides="1" tooltips="1" connect="1" arrows="1" fold="1" page="1" pageScale="1" pageWidth="827" pageHeight="1169" math="0" shadow="0">
      <root>
        <mxCell id="0" />
        <mxCell id="1" parent="0" />
        <mxCell id="4icRGHFph3vhGTAXj5IN-1" value="" style="edgeStyle=orthogonalEdgeStyle;rounded=0;orthogonalLoop=1;jettySize=auto;html=1;" edge="1" parent="1" source="4icRGHFph3vhGTAXj5IN-2">
          <mxGeometry relative="1" as="geometry">
            <mxPoint x="1150" y="-382" as="targetPoint" />
          </mxGeometry>
        </mxCell>
        <mxCell id="4icRGHFph3vhGTAXj5IN-2" value="&lt;p style=&quot;line-height: 110%;&quot;&gt;&lt;span style=&quot;font-size: 18px;&quot;&gt;double&lt;/span&gt;&lt;/p&gt;&lt;p style=&quot;line-height: 110%;&quot;&gt;&lt;span style=&quot;font-size: 18px;&quot;&gt;selection&lt;/span&gt;&lt;/p&gt;" style="ellipse;whiteSpace=wrap;html=1;" vertex="1" parent="1">
          <mxGeometry x="1095" y="-482" width="110" height="60" as="geometry" />
        </mxCell>
        <mxCell id="4icRGHFph3vhGTAXj5IN-3" value="&lt;span style=&quot;font-size: 25px;&quot;&gt;Ввод &lt;br&gt;arr, n, f, d&lt;br&gt;&lt;/span&gt;" style="shape=parallelogram;perimeter=parallelogramPerimeter;whiteSpace=wrap;html=1;fixedSize=1;" vertex="1" parent="1">
          <mxGeometry x="1073.82" y="-381" width="150" height="60" as="geometry" />
        </mxCell>
        <mxCell id="4icRGHFph3vhGTAXj5IN-4" value="" style="edgeStyle=orthogonalEdgeStyle;rounded=0;orthogonalLoop=1;jettySize=auto;html=1;exitX=0.5;exitY=1;exitDx=0;exitDy=0;entryX=0.5;entryY=0;entryDx=0;entryDy=0;" edge="1" parent="1">
          <mxGeometry relative="1" as="geometry">
            <mxPoint x="1151" y="-271.9999999999998" as="targetPoint" />
            <mxPoint x="1150" y="-321" as="sourcePoint" />
          </mxGeometry>
        </mxCell>
        <mxCell id="4icRGHFph3vhGTAXj5IN-5" style="edgeStyle=orthogonalEdgeStyle;rounded=0;orthogonalLoop=1;jettySize=auto;html=1;exitX=1;exitY=0.5;exitDx=0;exitDy=0;entryX=0.5;entryY=0;entryDx=0;entryDy=0;" edge="1" parent="1" source="4icRGHFph3vhGTAXj5IN-7">
          <mxGeometry relative="1" as="geometry">
            <mxPoint x="1540" y="-164.5" as="targetPoint" />
          </mxGeometry>
        </mxCell>
        <mxCell id="4icRGHFph3vhGTAXj5IN-6" style="edgeStyle=orthogonalEdgeStyle;rounded=0;orthogonalLoop=1;jettySize=auto;html=1;exitX=0.5;exitY=1;exitDx=0;exitDy=0;entryX=0.5;entryY=0;entryDx=0;entryDy=0;" edge="1" parent="1" source="4icRGHFph3vhGTAXj5IN-7" target="4icRGHFph3vhGTAXj5IN-9">
          <mxGeometry relative="1" as="geometry" />
        </mxCell>
        <mxCell id="4icRGHFph3vhGTAXj5IN-7" value="&lt;font style=&quot;font-size: 21px;&quot;&gt;i = 0, i &amp;lt; n / 2, i++&lt;/font&gt;" style="shape=hexagon;perimeter=hexagonPerimeter2;whiteSpace=wrap;html=1;fixedSize=1;" vertex="1" parent="1">
          <mxGeometry x="1055" y="-272" width="190" height="50" as="geometry" />
        </mxCell>
        <mxCell id="4icRGHFph3vhGTAXj5IN-8" style="edgeStyle=orthogonalEdgeStyle;rounded=0;orthogonalLoop=1;jettySize=auto;html=1;exitX=0.5;exitY=1;exitDx=0;exitDy=0;entryX=0.5;entryY=0;entryDx=0;entryDy=0;" edge="1" parent="1" source="4icRGHFph3vhGTAXj5IN-9" target="4icRGHFph3vhGTAXj5IN-11">
          <mxGeometry relative="1" as="geometry" />
        </mxCell>
        <mxCell id="4icRGHFph3vhGTAXj5IN-9" value="min_i = max_i = i" style="rounded=0;whiteSpace=wrap;html=1;fontSize=20;" vertex="1" parent="1">
          <mxGeometry x="1038" y="-160" width="224" height="51" as="geometry" />
        </mxCell>
        <mxCell id="4icRGHFph3vhGTAXj5IN-10" style="edgeStyle=orthogonalEdgeStyle;rounded=0;orthogonalLoop=1;jettySize=auto;html=1;exitX=0.5;exitY=1;exitDx=0;exitDy=0;" edge="1" parent="1" source="4icRGHFph3vhGTAXj5IN-11">
          <mxGeometry relative="1" as="geometry">
            <mxPoint x="1150" y="80" as="targetPoint" />
          </mxGeometry>
        </mxCell>
        <mxCell id="4icRGHFph3vhGTAXj5IN-11" value="min = arr[i], max = arr[i]" style="rounded=0;whiteSpace=wrap;html=1;fontSize=20;" vertex="1" parent="1">
          <mxGeometry x="1038" y="-45.5" width="224" height="51" as="geometry" />
        </mxCell>
        <mxCell id="4icRGHFph3vhGTAXj5IN-12" style="edgeStyle=orthogonalEdgeStyle;rounded=0;orthogonalLoop=1;jettySize=auto;html=1;exitX=0.5;exitY=1;exitDx=0;exitDy=0;" edge="1" parent="1" source="4icRGHFph3vhGTAXj5IN-14">
          <mxGeometry relative="1" as="geometry">
            <mxPoint x="1150" y="210" as="targetPoint" />
          </mxGeometry>
        </mxCell>
        <mxCell id="4icRGHFph3vhGTAXj5IN-13" style="edgeStyle=orthogonalEdgeStyle;rounded=0;orthogonalLoop=1;jettySize=auto;html=1;entryX=0.5;entryY=0;entryDx=0;entryDy=0;" edge="1" parent="1" source="4icRGHFph3vhGTAXj5IN-14" target="4icRGHFph3vhGTAXj5IN-32">
          <mxGeometry relative="1" as="geometry">
            <mxPoint x="1492" y="210" as="targetPoint" />
          </mxGeometry>
        </mxCell>
        <mxCell id="4icRGHFph3vhGTAXj5IN-14" value="&lt;font style=&quot;font-size: 21px;&quot;&gt;j = i + 1; j &amp;lt; n - i; j++&lt;/font&gt;" style="shape=hexagon;perimeter=hexagonPerimeter2;whiteSpace=wrap;html=1;fixedSize=1;" vertex="1" parent="1">
          <mxGeometry x="1041.9099999999999" y="81" width="216.18" height="50" as="geometry" />
        </mxCell>
        <mxCell id="4icRGHFph3vhGTAXj5IN-15" style="edgeStyle=orthogonalEdgeStyle;rounded=0;orthogonalLoop=1;jettySize=auto;html=1;exitX=0.5;exitY=1;exitDx=0;exitDy=0;entryX=0.5;entryY=0;entryDx=0;entryDy=0;" edge="1" parent="1" source="4icRGHFph3vhGTAXj5IN-16" target="4icRGHFph3vhGTAXj5IN-19">
          <mxGeometry relative="1" as="geometry" />
        </mxCell>
        <mxCell id="4icRGHFph3vhGTAXj5IN-16" value="cmp = compateAbonent(arr[j], max, f)" style="rounded=0;whiteSpace=wrap;html=1;fontSize=20;" vertex="1" parent="1">
          <mxGeometry x="979" y="210" width="342" height="51" as="geometry" />
        </mxCell>
        <mxCell id="4icRGHFph3vhGTAXj5IN-17" style="edgeStyle=orthogonalEdgeStyle;rounded=0;orthogonalLoop=1;jettySize=auto;html=1;exitX=0;exitY=0.5;exitDx=0;exitDy=0;entryX=0.5;entryY=0;entryDx=0;entryDy=0;" edge="1" parent="1" source="4icRGHFph3vhGTAXj5IN-19" target="4icRGHFph3vhGTAXj5IN-22">
          <mxGeometry relative="1" as="geometry">
            <mxPoint x="1020" y="550" as="targetPoint" />
          </mxGeometry>
        </mxCell>
        <mxCell id="4icRGHFph3vhGTAXj5IN-18" style="edgeStyle=orthogonalEdgeStyle;rounded=0;orthogonalLoop=1;jettySize=auto;html=1;exitX=1;exitY=0.5;exitDx=0;exitDy=0;entryX=0.5;entryY=0;entryDx=0;entryDy=0;" edge="1" parent="1" source="4icRGHFph3vhGTAXj5IN-19">
          <mxGeometry relative="1" as="geometry">
            <mxPoint x="1149.995" y="600" as="targetPoint" />
            <Array as="points">
              <mxPoint x="1290" y="370" />
              <mxPoint x="1290" y="560" />
              <mxPoint x="1150" y="560" />
            </Array>
          </mxGeometry>
        </mxCell>
        <mxCell id="4icRGHFph3vhGTAXj5IN-19" value="&lt;span style=&quot;font-size: 20px;&quot;&gt;cmp == d&lt;/span&gt;" style="rhombus;whiteSpace=wrap;html=1;" vertex="1" parent="1">
          <mxGeometry x="1083.2900000000002" y="330" width="133.41" height="80" as="geometry" />
        </mxCell>
        <mxCell id="4icRGHFph3vhGTAXj5IN-20" value="&lt;font style=&quot;font-size: 23px;&quot;&gt;Да&lt;/font&gt;" style="edgeLabel;html=1;align=center;verticalAlign=middle;resizable=0;points=[];" vertex="1" connectable="0" parent="1">
          <mxGeometry x="1055.0014285714287" y="367.0000000000002" as="geometry" />
        </mxCell>
        <mxCell id="4icRGHFph3vhGTAXj5IN-21" style="edgeStyle=orthogonalEdgeStyle;rounded=0;orthogonalLoop=1;jettySize=auto;html=1;exitX=0.5;exitY=1;exitDx=0;exitDy=0;entryX=0.5;entryY=0;entryDx=0;entryDy=0;" edge="1" parent="1" source="4icRGHFph3vhGTAXj5IN-22">
          <mxGeometry relative="1" as="geometry">
            <mxPoint x="1149.995" y="600" as="targetPoint" />
            <Array as="points">
              <mxPoint x="1012" y="560" />
              <mxPoint x="1150" y="560" />
            </Array>
          </mxGeometry>
        </mxCell>
        <mxCell id="4icRGHFph3vhGTAXj5IN-22" value="max = arr[j], max_i = j" style="rounded=0;whiteSpace=wrap;html=1;fontSize=20;" vertex="1" parent="1">
          <mxGeometry x="900" y="440" width="224" height="51" as="geometry" />
        </mxCell>
        <mxCell id="4icRGHFph3vhGTAXj5IN-23" style="edgeStyle=orthogonalEdgeStyle;rounded=0;orthogonalLoop=1;jettySize=auto;html=1;exitX=0.5;exitY=1;exitDx=0;exitDy=0;entryX=0.5;entryY=0;entryDx=0;entryDy=0;" edge="1" parent="1" source="4icRGHFph3vhGTAXj5IN-24" target="4icRGHFph3vhGTAXj5IN-27">
          <mxGeometry relative="1" as="geometry" />
        </mxCell>
        <mxCell id="4icRGHFph3vhGTAXj5IN-24" value="cmp = compateAbonent(min, arr[j], f)" style="rounded=0;whiteSpace=wrap;html=1;fontSize=20;" vertex="1" parent="1">
          <mxGeometry x="979" y="600" width="342" height="51" as="geometry" />
        </mxCell>
        <mxCell id="4icRGHFph3vhGTAXj5IN-25" style="edgeStyle=orthogonalEdgeStyle;rounded=0;orthogonalLoop=1;jettySize=auto;html=1;exitX=0;exitY=0.5;exitDx=0;exitDy=0;" edge="1" parent="1" source="4icRGHFph3vhGTAXj5IN-27">
          <mxGeometry relative="1" as="geometry">
            <mxPoint x="1000" y="810" as="targetPoint" />
          </mxGeometry>
        </mxCell>
        <mxCell id="4icRGHFph3vhGTAXj5IN-26" style="edgeStyle=orthogonalEdgeStyle;rounded=0;orthogonalLoop=1;jettySize=auto;html=1;exitX=1;exitY=0.5;exitDx=0;exitDy=0;endArrow=none;endFill=0;" edge="1" parent="1" source="4icRGHFph3vhGTAXj5IN-27">
          <mxGeometry relative="1" as="geometry">
            <mxPoint x="1140" y="1020" as="targetPoint" />
            <Array as="points">
              <mxPoint x="1300" y="740" />
              <mxPoint x="1300" y="920" />
              <mxPoint x="1140" y="920" />
            </Array>
          </mxGeometry>
        </mxCell>
        <mxCell id="4icRGHFph3vhGTAXj5IN-27" value="&lt;span style=&quot;font-size: 20px;&quot;&gt;cmp == d&lt;/span&gt;" style="rhombus;whiteSpace=wrap;html=1;" vertex="1" parent="1">
          <mxGeometry x="1083.3000000000002" y="700" width="133.41" height="80" as="geometry" />
        </mxCell>
        <mxCell id="4icRGHFph3vhGTAXj5IN-28" style="edgeStyle=orthogonalEdgeStyle;rounded=0;orthogonalLoop=1;jettySize=auto;html=1;exitX=0.5;exitY=1;exitDx=0;exitDy=0;entryX=0;entryY=0.5;entryDx=0;entryDy=0;" edge="1" parent="1" source="4icRGHFph3vhGTAXj5IN-29" target="4icRGHFph3vhGTAXj5IN-14">
          <mxGeometry relative="1" as="geometry">
            <mxPoint x="830" y="110" as="targetPoint" />
            <Array as="points">
              <mxPoint x="1002" y="920" />
              <mxPoint x="1140" y="920" />
              <mxPoint x="1140" y="1030" />
              <mxPoint x="840" y="1030" />
              <mxPoint x="840" y="106" />
            </Array>
          </mxGeometry>
        </mxCell>
        <mxCell id="4icRGHFph3vhGTAXj5IN-29" value="min = arr[j], min_i = j" style="rounded=0;whiteSpace=wrap;html=1;fontSize=20;" vertex="1" parent="1">
          <mxGeometry x="890" y="810" width="224" height="51" as="geometry" />
        </mxCell>
        <mxCell id="4icRGHFph3vhGTAXj5IN-30" style="edgeStyle=orthogonalEdgeStyle;rounded=0;orthogonalLoop=1;jettySize=auto;html=1;exitX=0;exitY=0.5;exitDx=0;exitDy=0;entryX=0.5;entryY=0;entryDx=0;entryDy=0;" edge="1" parent="1" source="4icRGHFph3vhGTAXj5IN-32" target="4icRGHFph3vhGTAXj5IN-35">
          <mxGeometry relative="1" as="geometry">
            <mxPoint x="1540" y="580" as="targetPoint" />
            <Array as="points">
              <mxPoint x="1400" y="236" />
              <mxPoint x="1400" y="450" />
              <mxPoint x="1540" y="450" />
              <mxPoint x="1540" y="600" />
            </Array>
          </mxGeometry>
        </mxCell>
        <mxCell id="4icRGHFph3vhGTAXj5IN-31" style="edgeStyle=orthogonalEdgeStyle;rounded=0;orthogonalLoop=1;jettySize=auto;html=1;exitX=1;exitY=0.5;exitDx=0;exitDy=0;endArrow=none;endFill=0;" edge="1" parent="1" source="4icRGHFph3vhGTAXj5IN-32">
          <mxGeometry relative="1" as="geometry">
            <mxPoint x="1670" y="400" as="targetPoint" />
          </mxGeometry>
        </mxCell>
        <mxCell id="4icRGHFph3vhGTAXj5IN-32" value="&lt;span style=&quot;font-size: 20px;&quot;&gt;i == max_i&lt;/span&gt;" style="rhombus;whiteSpace=wrap;html=1;" vertex="1" parent="1">
          <mxGeometry x="1470.0000000000002" y="195.5" width="133.41" height="80" as="geometry" />
        </mxCell>
        <mxCell id="4icRGHFph3vhGTAXj5IN-33" style="edgeStyle=orthogonalEdgeStyle;rounded=0;orthogonalLoop=1;jettySize=auto;html=1;endArrow=none;endFill=0;" edge="1" parent="1">
          <mxGeometry relative="1" as="geometry">
            <mxPoint x="1540" y="490" as="targetPoint" />
            <Array as="points">
              <mxPoint x="1670" y="450" />
              <mxPoint x="1540" y="450" />
            </Array>
            <mxPoint x="1670" y="395" as="sourcePoint" />
          </mxGeometry>
        </mxCell>
        <mxCell id="4icRGHFph3vhGTAXj5IN-34" style="edgeStyle=orthogonalEdgeStyle;rounded=0;orthogonalLoop=1;jettySize=auto;html=1;exitX=0.5;exitY=1;exitDx=0;exitDy=0;entryX=0.5;entryY=0;entryDx=0;entryDy=0;" edge="1" parent="1" source="4icRGHFph3vhGTAXj5IN-35" target="4icRGHFph3vhGTAXj5IN-37">
          <mxGeometry relative="1" as="geometry" />
        </mxCell>
        <mxCell id="4icRGHFph3vhGTAXj5IN-35" value="swap(arr[i], arr[min_i])" style="rounded=0;whiteSpace=wrap;html=1;fontSize=20;" vertex="1" parent="1">
          <mxGeometry x="1428" y="600" width="224" height="51" as="geometry" />
        </mxCell>
        <mxCell id="4icRGHFph3vhGTAXj5IN-36" style="edgeStyle=orthogonalEdgeStyle;rounded=0;orthogonalLoop=1;jettySize=auto;html=1;exitX=0.5;exitY=1;exitDx=0;exitDy=0;entryX=0.5;entryY=0;entryDx=0;entryDy=0;" edge="1" parent="1" source="4icRGHFph3vhGTAXj5IN-37" target="4icRGHFph3vhGTAXj5IN-40">
          <mxGeometry relative="1" as="geometry" />
        </mxCell>
        <mxCell id="4icRGHFph3vhGTAXj5IN-37" value="swap(arr[n - i - 1], arr[max_i])" style="rounded=0;whiteSpace=wrap;html=1;fontSize=20;" vertex="1" parent="1">
          <mxGeometry x="1400" y="714.5" width="280" height="51" as="geometry" />
        </mxCell>
        <mxCell id="4icRGHFph3vhGTAXj5IN-38" style="edgeStyle=orthogonalEdgeStyle;rounded=0;orthogonalLoop=1;jettySize=auto;html=1;exitX=1;exitY=0.5;exitDx=0;exitDy=0;entryX=0;entryY=0.5;entryDx=0;entryDy=0;" edge="1" parent="1" source="4icRGHFph3vhGTAXj5IN-39" target="4icRGHFph3vhGTAXj5IN-7">
          <mxGeometry relative="1" as="geometry" />
        </mxCell>
        <mxCell id="4icRGHFph3vhGTAXj5IN-39" value="" style="ellipse;whiteSpace=wrap;html=1;aspect=fixed;" vertex="1" parent="1">
          <mxGeometry x="940" y="-272" width="50" height="50" as="geometry" />
        </mxCell>
        <mxCell id="4icRGHFph3vhGTAXj5IN-40" value="" style="ellipse;whiteSpace=wrap;html=1;aspect=fixed;" vertex="1" parent="1">
          <mxGeometry x="1514.9999999999998" y="820" width="50" height="50" as="geometry" />
        </mxCell>
        <mxCell id="4icRGHFph3vhGTAXj5IN-41" value="&lt;font style=&quot;font-size: 23px;&quot;&gt;Да&lt;/font&gt;" style="edgeLabel;html=1;align=center;verticalAlign=middle;resizable=0;points=[];" vertex="1" connectable="0" parent="1">
          <mxGeometry x="1638.0014285714287" y="233.00000000000023" as="geometry" />
        </mxCell>
        <mxCell id="4icRGHFph3vhGTAXj5IN-42" style="edgeStyle=orthogonalEdgeStyle;rounded=0;orthogonalLoop=1;jettySize=auto;html=1;exitX=0.5;exitY=1;exitDx=0;exitDy=0;entryX=0.5;entryY=0;entryDx=0;entryDy=0;" edge="1" parent="1" source="4icRGHFph3vhGTAXj5IN-44" target="4icRGHFph3vhGTAXj5IN-43">
          <mxGeometry relative="1" as="geometry">
            <mxPoint x="1540" y="-150" as="sourcePoint" />
          </mxGeometry>
        </mxCell>
        <mxCell id="4icRGHFph3vhGTAXj5IN-43" value="&lt;p style=&quot;line-height: 110%;&quot;&gt;&lt;span style=&quot;font-size: 18px;&quot;&gt;Конец&lt;/span&gt;&lt;/p&gt;" style="ellipse;whiteSpace=wrap;html=1;" vertex="1" parent="1">
          <mxGeometry x="1485" y="-49" width="110" height="60" as="geometry" />
        </mxCell>
        <mxCell id="4icRGHFph3vhGTAXj5IN-44" value="&lt;span style=&quot;font-size: 25px;&quot;&gt;Вывод&lt;br&gt;arr&lt;br&gt;&lt;/span&gt;" style="shape=parallelogram;perimeter=parallelogramPerimeter;whiteSpace=wrap;html=1;fixedSize=1;" vertex="1" parent="1">
          <mxGeometry x="1465" y="-162.5" width="150" height="60" as="geometry" />
        </mxCell>
        <mxCell id="4icRGHFph3vhGTAXj5IN-45" value="max_i = min_i" style="rounded=0;whiteSpace=wrap;html=1;fontSize=20;" vertex="1" parent="1">
          <mxGeometry x="1560" y="316" width="224" height="51" as="geometry" />
        </mxCell>
      </root>
    </mxGraphModel>
  </diagram>
</mxfile>
